<?xml version="1.0" encoding="UTF-8"?><svg xmlns="http://www.w3.org/2000/svg" xmlns:xlink="http://www.w3.org/1999/xlink" height="443.6" preserveAspectRatio="xMidYMid meet" version="1.0" viewBox="-0.4 -1.2 749.2 443.6" width="749.2" zoomAndPan="magnify"><g><g><g><g id="change1_1"><path d="M373.01,351.91c-2.06-.3-4.09-.82-6.12-1.3-3.02-.71-6.01-1.48-9-2.28-7.87-2.14-15.74-4.33-23.56-6.64-5.85-1.73-11.64-3.61-17.39-5.65-2.87-1.01-5.72-2.07-8.55-3.16-5.43-2.09-11.43-4.31-15.26-8.86-3.04-3.61-3.49-8.05-2.91-12.54,.97-7.64,2.54-15.23,3.88-22.8,1.55-8.72,3.08-17.44,4.55-26.17,3.09-18.09,5.88-36.27,7.9-54.52,2.05-18.54,3.43-37.13,4.75-55.74,1.31-18.34,3.05-36.67,4.97-54.96,2.03-19.39,4.06-38.83,7.82-57.97,.87-4.41,1.88-8.79,3.05-13.13,2.3-8.48,5.11-18.27,12.74-23.49,3.44-2.36,7.56-3.16,11.65-2.44,2.5,.42,4.9,1.3,7.29,2.15,.49,.17,.97,.35,1.45,.53,4.11,1.44,8.16,3.04,12.19,4.64,8.21,3.29,16.31,6.87,24.55,10.14,8.52,3.38,17.09,6.64,25.71,9.78,8.79,3.22,17.64,6.35,26.37,9.75,8.88,3.45,17.67,7.12,26.4,10.98,8.46,3.75,16.76,7.75,24.77,12.36,2.54,1.46,5.01,3.15,7.37,4.88,1.91,1.41,3.77,3.09,5.27,4.92,.85,1.05,1.55,2.11,2.29,3.24,.81,1.24,1.23,2.75,1.67,4.15,1.25,3.97-.04,8.37-1.84,11.93-1.07,2.11-2.18,4.2-3.31,6.28-8.64,16.01-17.45,31.91-25.94,48-17.15,32.53-33.63,65.4-50.48,98.09-8.79,17.08-17.69,34.11-26.89,50.96-8.57,15.71-17.65,31.14-26.56,46.66,.03,.06,.05,.13,.09,.2-.61,.85-1.23,1.7-1.82,2.57-.06,.08-.12,.16-.17,.24-.02,.03-.03,.05-.05,.08h0c-1.02,1.57-1.83,3.25-2.81,4.83-.38,.63-.78,1.26-1.16,1.9-.05,.06-.09,.13-.16,.2-.57,.74-1.2,1.49-1.77,2.28-.31,0-.64-.03-.97-.08ZM348.57,18.09c-.42,.68-.79,1.35-1.18,2.05-.82,1.86-1.55,3.72-2.21,5.65-2.21,7.08-3.71,14.35-5.12,21.63-3,18.25-5.17,36.62-6.99,55.03-1.85,18.88-3.6,37.77-5,56.68-1.36,18.24-2.57,36.5-4.81,54.66-2.28,18.51-5.1,36.94-8.24,55.33-1.44,8.36-2.91,16.72-4.4,25.07-.66,3.79-1.33,7.58-1.99,11.38-.46,2.66-.99,5.34-1.3,8.03,.3,.18,.6,.35,.9,.51,6.66,3.05,13.61,5.49,20.56,7.83,9.43,3.04,18.98,5.7,28.53,8.34,2.9,.8,5.79,1.61,8.69,2.37,.02-.05,.05-.09,.08-.13,8.92-15.54,18.01-30.97,26.61-46.68,9.24-16.92,18.18-33.99,27.01-51.12,8.35-16.18,16.51-32.44,24.83-48.65,8.61-16.78,17.31-33.54,26.06-50.24,4.95-9.44,10.03-18.81,15.13-28.17,4.7-8.64,9.61-17.19,14.05-25.97,.02-.02,.03-.05,.04-.07-.09-.11-.19-.22-.27-.34-.3-.31-.6-.62-.91-.9-1.09-.92-2.21-1.76-3.37-2.58-4.01-2.5-8.1-4.84-12.3-7.07-8.24-4-16.61-7.73-25.04-11.34-8.48-3.63-17.12-6.88-25.76-10.11-8.41-3.13-16.88-6.1-25.28-9.27-8.79-3.32-17.53-6.76-26.22-10.37-9.96-4.14-19.87-8.33-30.08-11.84-.48-.16-.97-.3-1.46-.43-.09,.09-.17,.18-.27,.28-.02,.03-.03,.05-.05,.08,.1-.11,.2-.22,.31-.34-.17,.24-.35,.47-.53,.71Z" fill="#7b472a"/></g><g id="change1_2"><path d="M529.13,442.16c-.56-.1-1.09-.24-1.62-.42-3.25-1.15-5.76-3.9-8.27-6.21-2.76-2.54-5.6-4.97-8.51-7.34-6.23-4.87-12.71-9.38-19.16-13.98-4.92-3.5-9.75-7.11-14.46-10.87-.87-.93-1.76-1.85-2.65-2.75-1.31-1.31-2.71-2.53-4.08-3.77-.16-.34-.29-.69-.4-1.04-.16,.08-.34,.14-.51,.2-.85-.79-1.69-1.61-2.48-2.47-.21-.24-.42-.49-.65-.72-.05-.05-.09-.11-.14-.16l.06,.06c-1.63-1.87-3.32-3.71-4.89-5.63-.61-.74-1.19-1.49-1.79-2.25-.24-.33-.52-.65-.77-.97,.49-.9,1.15-1.73,1.93-2.48-.17,.16-.35,.33-.52,.5,1-.99,1.91-2.03,2.81-3.11,3.68-4.86,6.91-10,10.08-15.2,9.32-16.03,18.14-32.33,27-48.61,9.21-16.94,18.44-33.86,27.98-50.62,9.25-16.28,19.02-32.25,29.18-47.98,9.97-15.41,20.63-30.35,31.1-45.42,5.1-7.33,10.07-14.72,14.9-22.23,2.57-3.99,4.84-8.32,8.34-11.57,1.51-1.41,3.7-2.23,5.68-2.61,2.22-.42,4.6-.14,6.77,.42,3.62,.93,6.89,2.75,10.11,4.62,3.82,2.22,7.44,4.88,10.91,7.61,3.89,3.05,7.73,6.16,11.57,9.28,6.96,5.68,13.94,11.3,20.92,16.93,13.85,11.18,27.8,22.43,40.56,34.87,6.65,6.48,13.11,13.14,19.49,19.89,4.2,4.44,9.31,9.09,10.62,15.3,.27,1.31,.42,2.5,.48,3.84,.05,1.2-.05,2.59-.38,3.75-.57,2.11-1.31,4.05-2.3,6.01-1.32,2.61-3.04,5.09-4.78,7.44-5.8,7.83-12.43,14.9-19.28,21.81-6.3,6.35-12.85,12.52-19.6,18.39-7.03,6.09-14.2,12-21.34,17.96-7.11,5.92-14.19,11.86-21.3,17.78-13.91,11.58-28.14,22.79-42.16,34.27-6.89,5.63-13.79,11.26-20.77,16.77-6.92,5.47-13.58,11.22-20.16,17.09-5.94,5.27-11.91,10.51-17.82,15.81-4.97,4.44-9.8,9.14-15.11,13.18-3.59,2.73-7.67,4.84-12.15,4.84-.79,0-1.59-.07-2.4-.2Zm87.24-281.99c-2.45,3.76-4.93,7.51-7.44,11.23-4.99,7.44-10.18,14.74-15.32,22.08-10.93,15.62-21.54,31.44-31.67,47.58-1.99,3.13-3.92,6.31-5.85,9.5-9.63,16.21-18.93,32.58-28.03,49.11-8.8,15.99-17.36,32.12-26.2,48.09-4.62,8.35-9.18,16.74-14.13,24.89-2.45,4.03-4.9,8.16-7.63,12.07,.32,.08,.64,.17,.97,.28,1.05,.38,2.04,.93,2.93,1.69,1.44,1.22,2.91,2.42,4.37,3.6,7.29,5.79,14.97,11.04,22.5,16.47,4.45,3.21,8.8,6.52,13.06,9.98,2.98,2.4,5.72,5.08,8.58,7.63,.11-.08,.21-.14,.31-.22,2.56-1.93,4.95-4.11,7.33-6.24,3.04-2.71,6.06-5.45,9.11-8.15,6.82-6.1,13.68-12.15,20.52-18.22,6.56-5.83,13.4-11.27,20.26-16.75,6.88-5.49,13.69-11.09,20.5-16.66,14.09-11.5,28.35-22.77,42.28-34.45,14.13-11.84,28.57-23.36,42.28-35.67,3.3-2.94,6.5-5.98,9.71-9.03,3.71-3.67,7.4-7.34,11.01-11.11,3.4-3.56,6.58-7.29,9.67-11.11,1.63-2.18,3.2-4.37,4.66-6.65,.42-.76,.81-1.52,1.17-2.28,.05-.13,.09-.25,.13-.38,0-.02,0-.05,0-.08-.02-.05-.05-.13-.07-.18-.06-.13-.13-.24-.19-.36-.13-.2-.27-.4-.41-.6-3.52-4.31-7.51-8.26-11.36-12.26-6.17-6.41-12.48-12.68-19.02-18.73-6.5-6.02-13.29-11.76-20.12-17.42-13.87-11.5-27.92-22.75-41.95-34.06-4.11-3.24-8.25-6.34-12.63-9.2-1.41-.82-2.81-1.6-4.28-2.32-1.73,2.61-3.34,5.3-5.04,7.93Z" fill="#7b472a"/></g><g id="change1_3"><path d="M177.21,334.23c-.87-.31-1.72-.71-2.54-1.22-1.41-.86-2.61-2.03-3.83-3.14-1.29-1.18-2.56-2.36-3.82-3.55-2.9-2.73-5.75-5.51-8.56-8.34-12.21-12.3-22.43-26.41-33.06-40.04-11.26-14.46-23.51-28.02-35.77-41.61-12.63-14.01-25.05-28.17-36.55-43.13-5.9-7.66-11.57-15.48-17.11-23.41-5.17-7.4-9.89-15.08-14.51-22.83-1.5-2.53-2.87-5.14-4.29-7.71h0l-.12-.22s.02,.04,.04,.06c-4.24-7.72-7.95-15.7-11.53-23.73-1.85-4.18-3.72-8.52-4.81-12.97-.88-3.61-1.2-7.15,.31-10.64,.82-1.87,2.28-3.26,3.81-4.54,4.65-3.83,9.57-7.35,14.4-10.95,6.8-5.04,13.59-10.09,20.26-15.32,6.81-5.35,13.29-11.06,20.25-16.21,7.13-5.29,14.34-10.48,21.81-15.29,7.84-5.06,15.87-9.78,24.08-14.22,7.77-4.22,15.74-8.24,24.13-11.04,7.12-2.38,15.66-5.38,22.46-.64,5.64,3.93,7.52,11.2,9.56,17.39,2.69,8.13,5.15,16.33,7.48,24.56,5.02,17.78,10.13,35.51,15.61,53.17,2.83,9.08,5.69,18.13,8.62,27.18,2.98,9.14,6.19,18.19,9.45,27.22,2.96,8.23,6.22,16.36,9.29,24.54,3.37,8.97,6.73,17.96,10.07,26.94,5.84,15.68,11.59,31.38,16.91,47.25,2.48,7.39,4.92,14.81,7.26,22.24,1.22,3.91,2.43,7.83,3.56,11.75,.9,3.11,1.65,6.33,2.83,9.34-.11-.26-.2-.52-.31-.77,.79,2.03,1.03,4.11,.34,6.23,.24,3.82-2.18,7.44-5.91,8.75-.88,.31-1.73,.63-2.58,.97-5.12,2.1-10.12,4.44-15.13,6.74-7.74,3.56-15.41,7.23-23.19,10.69-4.19,1.85-8.44,3.58-12.77,5.05-3.5,1.19-7.31,2.28-11.02,2.28-1.74,0-3.45-.24-5.1-.82ZM46.78,155.02c4.08,6.11,8.34,12.08,12.64,18.03,5.34,7.15,10.74,14.24,16.41,21.17,5.87,7.15,11.9,14.17,18.05,21.07,12.56,14.06,25.42,27.85,37.4,42.39,6.27,7.63,12.24,15.51,18.28,23.32,2.84,3.68,5.76,7.3,8.72,10.89,2.85,3.48,5.69,6.99,8.77,10.28,2.98,3.06,6.01,6.09,9.09,9.05,2.28,2.19,4.56,4.41,6.93,6.51,.71-.14,1.39-.3,2.08-.47,2.87-.88,5.69-1.9,8.5-2.99,9.81-4.07,19.36-8.75,29.02-13.19,4.06-1.85,8.11-3.77,12.23-5.51-.49-1.72-.97-3.44-1.46-5.15-1.29-4.44-2.67-8.86-4.06-13.27-2.84-9.01-5.86-17.97-8.87-26.92-6.04-17.96-12.85-35.66-19.46-53.4-6.35-17.04-13.19-33.93-19.06-51.15-6.01-17.57-11.62-35.29-17-53.07-3.78-12.48-7.37-25-10.92-37.55-1.77-6.23-3.57-12.46-5.46-18.66-1.73-5.61-3.37-11.34-5.5-16.82-.18-.4-.36-.78-.55-1.16-.53,.09-1.04,.2-1.58,.32-3.85,1.08-7.58,2.43-11.31,3.89-6.67,2.94-13.11,6.27-19.51,9.73-13.03,7.34-25.48,15.47-37.56,24.28-5.62,4.19-11.08,8.54-16.47,13.03-5.35,4.43-10.87,8.64-16.42,12.81-5.08,3.82-10.2,7.58-15.28,11.39-2.25,1.7-4.56,3.35-6.77,5.11,.59,1.84,1.26,3.65,1.96,5.46,3.88,9.24,8.27,18.18,12.9,27.07-.18-.32-.36-.64-.54-.96,1.31,2.36,2.63,4.73,3.95,7.11-.05-.09-.09-.16-.13-.24,3.36,6.02,7.14,11.87,10.96,17.6Z" fill="#7b472a"/></g><g id="change2_1"><path d="M176.14,311.21c-3.07-2.95-6.1-5.98-9.08-9.04-3.09-3.29-5.92-6.8-8.79-10.28-2.96-3.59-5.88-7.21-8.72-10.89-6.03-7.82-12.01-15.69-18.28-23.32-11.97-14.55-24.84-28.34-37.39-42.39-6.16-6.9-12.19-13.92-18.05-21.08-5.66-6.92-11.07-14.01-16.4-21.16-4.31-5.94-8.56-11.92-12.65-18.03-3.83-5.74-7.6-11.58-10.97-17.6-1.09-1.97-2.18-3.94-3.28-5.92-4.62-8.88-9.01-17.82-12.89-27.06-.7-1.81-1.37-3.61-1.96-5.46,2.21-1.76,4.53-3.41,6.77-5.1,5.08-3.82,10.21-7.58,15.29-11.4,5.54-4.17,11.06-8.39,16.41-12.81,5.39-4.48,10.85-8.84,16.48-13.03,12.08-8.81,24.53-16.94,37.56-24.28,6.41-3.46,12.85-6.79,19.51-9.73,3.72-1.45,7.47-2.81,11.31-3.89,.53-.12,1.05-.23,1.59-.32,.19,.38,.37,.76,.54,1.16,2.14,5.48,3.78,11.2,5.5,16.82,1.88,6.2,3.69,12.43,5.45,18.66,3.56,12.56,7.15,25.08,10.92,37.56,5.38,17.78,11,35.5,17.01,53.07,5.87,17.21,12.7,34.1,19.06,51.15,6.62,17.75,13.42,35.44,19.46,53.39,3.01,8.96,6.03,17.93,8.87,26.93,1.38,4.41,2.76,8.82,4.05,13.27,.5,1.71,.97,3.43,1.48,5.15-4.13,1.74-8.18,3.66-12.24,5.51-9.65,4.44-19.21,9.12-29.01,13.19-2.81,1.09-5.63,2.11-8.51,2.99-.68,.17-1.37,.33-2.07,.47-2.37-2.1-4.66-4.32-6.95-6.52Z" fill="#ff97a2"/></g><g id="change3_1"><path d="M357.32,330.29c-9.56-2.64-19.1-5.3-28.53-8.34-2.17-.73-4.35-1.48-6.51-2.25-4.75-1.69-9.47-3.49-14.04-5.58-.31-.16-.61-.33-.9-.51,.31-2.69,.83-5.37,1.29-8.03,.66-3.79,1.33-7.58,1.99-11.38,1.48-8.35,2.96-16.71,4.4-25.07,3.15-18.39,5.96-36.82,8.24-55.33,2.24-18.15,3.45-36.42,4.81-54.66,1.4-18.92,3.15-37.81,5-56.68,1.81-18.4,3.99-36.78,6.98-55.03,1.42-7.28,2.91-14.55,5.13-21.63,.66-1.92,1.38-3.78,2.21-5.65,.38-.7,.76-1.37,1.17-2.05,.19-.24,.36-.47,.54-.71-.1,.12-.21,.23-.31,.34,.02-.02,.03-.05,.05-.08,.09-.1,.17-.19,.27-.28,.49,.13,.97,.27,1.46,.43,10.2,3.51,20.12,7.7,30.07,11.84,8.68,3.61,17.43,7.05,26.23,10.37,8.4,3.16,16.87,6.13,25.28,9.27,8.64,3.23,17.27,6.48,25.76,10.11,8.43,3.61,16.79,7.34,25.04,11.34,4.19,2.23,8.28,4.56,12.3,7.07,1.15,.82,2.28,1.66,3.37,2.58,.31,.28,.61,.59,.91,.9,.09,.12,.19,.23,.27,.34,0,.02-.02,.05-.03,.07-4.44,8.78-9.35,17.33-14.05,25.97-5.1,9.36-10.18,18.73-15.13,28.17-8.75,16.71-17.45,33.47-26.05,50.24-8.32,16.21-16.48,32.47-24.84,48.65-8.83,17.13-17.76,34.2-27.01,51.12-8.59,15.71-17.69,31.14-26.61,46.68-.02,.04-.05,.09-.07,.13-2.91-.76-5.8-1.57-8.69-2.37Z" fill="#ffa047"/></g><g id="change4_1"><path d="M523.91,416.74c-4.26-3.46-8.61-6.77-13.06-9.98-7.54-5.43-15.22-10.68-22.5-16.47-1.47-1.19-2.93-2.39-4.37-3.6-.89-.75-1.88-1.31-2.93-1.69-.32-.11-.64-.2-.97-.28,2.73-3.91,5.18-8.04,7.63-12.07,4.95-8.15,9.51-16.54,14.13-24.89,8.84-15.97,17.4-32.1,26.2-48.09,9.1-16.53,18.4-32.9,28.03-49.11,1.93-3.19,3.86-6.37,5.85-9.5,10.14-16.14,20.74-31.97,31.67-47.58,5.14-7.34,10.33-14.64,15.32-22.08,2.5-3.72,4.99-7.47,7.44-11.23,1.7-2.63,3.31-5.32,5.04-7.93,1.47,.71,2.87,1.5,4.28,2.32,4.37,2.86,8.52,5.97,12.63,9.2,14.02,11.31,28.08,22.57,41.95,34.06,6.82,5.65,13.62,11.39,20.12,17.42,6.54,6.05,12.85,12.33,19.02,18.73,3.86,4,7.84,7.95,11.36,12.26,.14,.2,.27,.39,.41,.6,.06,.12,.13,.24,.19,.36,.02,.05,.05,.13,.07,.18,0,.03,0,.05,0,.08-.04,.13-.09,.25-.13,.38-.36,.77-.75,1.52-1.17,2.28-1.45,2.28-3.03,4.47-4.66,6.65-3.09,3.82-6.27,7.55-9.67,11.11-3.6,3.77-7.29,7.44-11.01,11.11-3.2,3.05-6.41,6.09-9.71,9.03-13.72,12.31-28.15,23.83-42.28,35.67-13.94,11.68-28.2,22.94-42.28,34.45-6.82,5.57-13.62,11.17-20.5,16.66-6.85,5.48-13.7,10.92-20.26,16.75-6.84,6.08-13.69,12.12-20.52,18.22-3.05,2.7-6.07,5.44-9.11,8.15-2.39,2.14-4.77,4.31-7.33,6.24-.09,.08-.2,.14-.31,.22-2.86-2.55-5.6-5.23-8.58-7.63Z" fill="#ffde7a"/></g></g></g></g></svg>