<?xml version="1.0" encoding="UTF-8"?><svg xmlns="http://www.w3.org/2000/svg" xmlns:xlink="http://www.w3.org/1999/xlink" height="88.6" preserveAspectRatio="xMidYMid meet" version="1.0" viewBox="0.1 16.7 118.9 88.6" width="118.9" zoomAndPan="magnify"><defs><clipPath id="a" transform="translate(.9 16.68)"><path d="M40.5,76.4a3,3,0,0,0,2.68-3.51c-1.37-8.11-1.6-16.6,1.85-24a16.34,16.34,0,0,1,3.59-5.17,13.5,13.5,0,0,1,11.62-3,18.35,18.35,0,0,1,10.34,6.48c3.77,4.55,5.55,10.31,7.79,15.81A3.26,3.26,0,0,0,83,64.67l21.11-12.08a5.4,5.4,0,0,0,2.51-6.14A53,53,0,0,0,91.46,21.1C83,13.45,71.51,9,60.14,9.84c-6.11.44-12,2.35-17.72,4.62A62.34,62.34,0,0,0,31,20.18c-9,6-15.37,15.64-18.47,26.05-2.87,9.65-3.12,19.93-1.71,29.91a2.58,2.58,0,0,0,2.69,2.24C18.79,78.06,31.8,77.23,40.5,76.4Z" fill="#fbcb5c" stroke="#000" stroke-miterlimit="10" stroke-width="3"/></clipPath></defs><g data-name="Layer 2"><g data-name="Layer 2"><g id="change1_1"><path d="M116.28,44.07A62.68,62.68,0,0,0,98.17,14,53.43,53.43,0,0,0,62.87,0c-1.15,0-2.32,0-3.46.13-8,.58-15.29,3.15-20.7,5.31a72.2,72.2,0,0,0-13.23,6.67C14.93,19.13,6.93,30.33,3,43.64-.12,54-.8,65.49.94,77.8A12.64,12.64,0,0,0,13.38,88.64c.25,0,.51,0,.76,0,5.26-.32,18.43-1.15,27.31-2A13,13,0,0,0,53,71.49c-1.34-7.94-1-13.69,1.05-18.1a6.45,6.45,0,0,1,1.29-2,3.16,3.16,0,0,1,2.06-.62,4,4,0,0,1,.85.08,8.47,8.47,0,0,1,4.59,3c2,2.47,3.46,6.13,5,10,.42,1.07.83,2.15,1.26,3.21A13.26,13.26,0,0,0,88,73.61l21.12-12.08A15.42,15.42,0,0,0,116.28,44.07Z" fill="#fff" transform="translate(.9 16.68)"/></g><g id="change2_1"><path d="M40.5,76.4a3,3,0,0,0,2.68-3.51c-1.37-8.11-1.6-16.6,1.85-24a16.34,16.34,0,0,1,3.59-5.17,13.5,13.5,0,0,1,11.62-3,18.35,18.35,0,0,1,10.34,6.48c3.77,4.55,5.55,10.31,7.79,15.81A3.26,3.26,0,0,0,83,64.67l21.11-12.08a5.4,5.4,0,0,0,2.51-6.14A53,53,0,0,0,91.46,21.1C83,13.45,71.51,9,60.14,9.84c-6.11.44-12,2.35-17.72,4.62A62.34,62.34,0,0,0,31,20.18c-9,6-15.37,15.64-18.47,26.05-2.87,9.65-3.12,19.93-1.71,29.91a2.58,2.58,0,0,0,2.69,2.24C18.79,78.06,31.8,77.23,40.5,76.4Z" fill="#fbcb5c" transform="translate(.9 16.68)"/></g><g clip-path="url(#a)"><g id="change3_1"><path d="M102.12,66c-2.2-9.16-5-18.32-10.12-26.26S79.34,25.1,70.21,22.76c-11-2.84-22.79.95-32.74,6.53a36.85,36.85,0,0,0-8.69,6.3c-6.83,7.1-8.36,17.66-9,27.49-.44,7.08-.57,14.38,1.9,21L.6,87.91,3.34,6.61l103.53-21.8,19.84,60.85Z" fill="#dd4b4b" transform="translate(.9 16.68)"/></g><g id="change4_1"><path d="M103.57,65.57c-3.22-13.15-7.84-26.72-18.19-36-9.76-8.8-22.32-11.06-34.84-7.45C39,25.42,26.79,31.89,22,43.53c-2.44,5.94-3.23,12.41-3.66,18.77-.52,7.53-.54,15,1.89,22.21l1.05-1.85L.2,86.47l1.9,1.44L4.84,6.61,3.74,8.06,94.43-11l12.84-2.71-1.84-1,12.2,37.43,6.66,20.44a8.14,8.14,0,0,0,.76,2.31c1,1-.67-.29.48-.68-2.1.71-4.57,3.77-6.25,5.16l-18.22,15c-1.49,1.23.64,3.35,2.12,2.12l24.6-20.31a1.48,1.48,0,0,0,.38-1.46L108.32-15.59a1.54,1.54,0,0,0-1.84-1.05L15.79,2.46,3,5.17A1.53,1.53,0,0,0,1.84,6.61L-.9,87.91A1.52,1.52,0,0,0,1,89.36l21.1-3.8a1.52,1.52,0,0,0,1-1.85c-3.63-10.79-2.75-24.89.48-35.75,3.78-12.69,15.61-19.5,27.72-23C63.67,21.42,75.76,24,84.88,33.2c8.9,8.94,12.86,21.21,15.79,33.17C101.13,68.25,104,67.45,103.57,65.57Z" transform="translate(.9 16.68)"/></g><g id="change5_1"><path d="M91,68l-3.65-9.87A54.8,54.8,0,0,0,82,46.53a50.13,50.13,0,0,0-6.89-7.82,35.46,35.46,0,0,0-7.59-6.08c-7.39-4-17-2.57-23.81,2.34s-11.08,12.79-13,21a50.32,50.32,0,0,0,2.06,29.94Z" fill="#377b4a" transform="translate(.9 16.68)"/></g><g id="change4_2"><path d="M92.47,67.55C88.31,56.31,85,46.18,76.21,37.65c-7.37-7.17-16-10.94-26.24-7.51-22.23,7.43-25.7,37.15-18.66,56.14a1.53,1.53,0,0,0,1.84,1L91.42,69.4c1.84-.57,1.06-3.46-.8-2.89L32.36,84.43l1.84,1C27.76,68.1,30.13,40,50.76,33c10.66-3.62,18.66,1.7,25.79,9.21,7,7.31,9.6,16.86,13,26.11C90.24,70.15,93.14,69.37,92.47,67.55Z" transform="translate(.9 16.68)"/></g></g><path d="M40.5,76.4a3,3,0,0,0,2.68-3.51c-1.37-8.11-1.6-16.6,1.85-24a16.34,16.34,0,0,1,3.59-5.17,13.5,13.5,0,0,1,11.62-3,18.35,18.35,0,0,1,10.34,6.48c3.77,4.55,5.55,10.31,7.79,15.81A3.26,3.26,0,0,0,83,64.67l21.11-12.08a5.4,5.4,0,0,0,2.51-6.14A53,53,0,0,0,91.46,21.1C83,13.45,71.51,9,60.14,9.84c-6.11.44-12,2.35-17.72,4.62A62.34,62.34,0,0,0,31,20.18c-9,6-15.37,15.64-18.47,26.05-2.87,9.65-3.12,19.93-1.71,29.91a2.58,2.58,0,0,0,2.69,2.24C18.79,78.06,31.8,77.23,40.5,76.4Z" fill="none" stroke="#000" stroke-miterlimit="10" stroke-width="3" transform="translate(.9 16.68)"/></g></g></svg>