<?xml version="1.0" encoding="UTF-8" standalone="no"?><svg xmlns="http://www.w3.org/2000/svg" xmlns:xlink="http://www.w3.org/1999/xlink" fill="#d81b1b" height="519" id="Layer_1" preserveAspectRatio="xMidYMid meet" version="1.1" viewBox="-7.9 -7.9 527.9 519.0" width="527.9" x="0" xml:space="preserve" y="0" zoomAndPan="magnify"><g id="change1_2"><path d="M170.9419861,307.9851685c1.5205994-1.5205688,3.6114044-2.4075928,5.8289337-2.4075928H377.868927 c3.6747742,0,5.512146,4.4350586,2.9144897,7.0327148l-39.7254333,39.7254333 c-1.5205688,1.5205688-3.6114197,2.4075928-5.828949,2.4075928H134.1310425c-3.6747589,0-5.512146-4.4350586-2.9144745-7.0327454 L170.9419861,307.9851685z" fill="inherit"/><path d="M170.9419861,159.6642914c1.5839539-1.5205994,3.6747589-2.407608,5.8289337-2.407608h201.0980377 c3.6747437,0,5.512146,4.4350586,2.9144592,7.0327301l-39.7254028,39.7254181 c-1.5205994,1.5205994-3.6114197,2.407608-5.828949,2.407608H134.1310425c-3.6747589,0-5.512146-4.4350586-2.9144745-7.0327301 L170.9419861,159.6642914z" fill="inherit"/><path d="M341.0580139,233.3495483c-1.5205994-1.5205841-3.6114197-2.407608-5.828949-2.407608H134.1310425 c-3.6747589,0-5.512146,4.4350586-2.9144745,7.0327301l39.7254181,39.7254028 c1.5205994,1.5205994,3.6114044,2.4076233,5.8289337,2.4076233H377.868927c3.6747742,0,5.512146-4.4350586,2.9144897-7.0327454 L341.0580139,233.3495483z" fill="inherit"/></g><g id="change1_1"><path d="M502.3110352,190.0009766C484.6821289,124.2089844,442.4873047,69.2202148,383.5,35.1635742 C324.512207,1.1074219,255.7939453-7.9404297,190.0009766,9.6889648 C124.2089844,27.3178711,69.2202148,69.5126953,35.1635742,128.5 C1.1074219,187.4873047-7.9399414,256.206543,9.6889648,321.9990234 C27.3178711,387.7910156,69.5126953,442.7797852,128.5,476.8364258 c39.2939453,22.6860352,82.8964844,34.2729492,127.0849609,34.2729492c22.1469727,0,44.4482422-2.9125977,66.4140625-8.7983398 C387.7910156,484.6821289,442.7797852,442.4873047,476.8364258,383.5 C510.8925781,324.5126953,519.9399414,255.793457,502.3110352,190.0009766z M488.9215088,310.0657349l-17.7554932-4.7576294 c-4.269043-1.1411133-8.6547852,1.3891602-9.7983398,5.6567383c-1.1435547,4.2680664,1.3891602,8.6547852,5.6567383,9.7983398 l17.7216797,4.7485352c-5.2729492,17.2335815-12.5319824,33.9942017-21.7661133,49.9882812 c-9.2141113,15.9594116-20.0721436,30.5977783-32.3276367,43.7588501l-11.5874023-11.5869751 c-0.3452148-0.6103516-0.7768555-1.1850586-1.2949219-1.706543c-3.1137695-3.1347656-8.1899414-3.140625-11.3251953-0.0273438 l-0.1967773,0.1923828c-1.5087891,1.4985352-2.3588867,3.5361328-2.3623047,5.6625977 c-0.003418,2.1259766,0.8393555,4.1665039,2.3432617,5.6699219l13.1391602,13.138855 c-26.4284668,24.7922974-58.3354492,43.2797852-93.8210449,54.0418091l-4.7697754-17.8017578 c-0.5507812-2.0551758-1.8969727-3.8061523-3.7416992-4.8657227c-1.8452148-1.0605469-4.0366211-1.3427734-6.0874023-0.7827148 l-0.25,0.0708008c-4.2695312,1.1357422-6.8105469,5.5175781-5.6743164,9.7875977 c0.1972656,0.7421875,0.4926758,1.4321289,0.8691406,2.0600586l4.1992188,15.6729126 c-36.0927734,8.4182129-72.9493408,8.3661499-108.217041,0.1223755l4.7600098-17.7640381 c1.1435547-4.2680664-1.3891602-8.6547852-5.6567383-9.7983398c-4.2685547-1.1411133-8.6542969,1.3891602-9.7983398,5.6567383 l-4.75,17.7269287C169.217041,479.4569702,152.4760742,472.2036743,136.5,462.9799805 c-15.9831543-9.2278442-30.6408691-20.1047363-43.8171387-32.3826294l13.1345215-13.1344604 c3.1245117-3.1240234,3.1245117-8.1894531,0-11.3134766l-0.2192383-0.2138672 c-3.1240234-3.1240234-8.1894531-3.1240234-11.3134766,0c-0.5395508,0.5395508-0.9858398,1.1367188-1.3388672,1.7719727 l-11.6030273,11.6030273c-24.7756348-26.428772-43.2485352-58.3317871-54.0006104-93.8098755l17.6798096-4.7374878 c4.2675781-1.1435547,6.800293-5.5302734,5.6567383-9.7983398c-1.1435547-4.2670898-5.527832-6.7983398-9.7983398-5.6567383 l-17.6760254,4.7364502c-8.4116211-36.0982056-8.3508301-72.9586182-0.097168-108.2281494l18.3688965,4.921875 c0.6933594,0.1855469,1.3896484,0.2744141,2.0751953,0.2744141c3.5322266,0,6.7646484-2.3574219,7.7226562-5.9316406 c1.1435547-4.2675781-1.3891602-8.6542969-5.6572266-9.7978516l-18.3280029-4.9108887 C32.5585938,169.1794434,39.8065186,152.458252,49.0200195,136.5c9.2333984-15.9926758,20.118042-30.6584473,32.4050293-43.8408203 l13.3288574,13.3291016c1.5620117,1.5625,3.6088867,2.3432617,5.6567383,2.3432617 c2.0473633,0,4.0947266-0.78125,5.6567383-2.3432617c3.1245117-3.1240234,3.1245117-8.1894531,0-11.3134766l-13.354126-13.3544922 c26.4124756-24.75354,58.2908936-43.2131348,93.739624-53.9638672L191.3144531,45.5 c0.9580078,3.5742188,4.1899414,5.9311523,7.7226562,5.9311523c0.6850586,0,1.3823242-0.0888672,2.0756836-0.2744141 c4.2675781-1.1435547,6.800293-5.5302734,5.6567383-9.7983398l-4.8657227-18.1586914 c18.0688477-4.2145996,36.328125-6.3022461,54.4853516-6.3022461c18.112793,0,36.1225586,2.078125,53.7358398,6.1950684 l-4.9194336,18.3601074c-1.1435547,4.2675781,1.3891602,8.6542969,5.6572266,9.7978516 c0.6933594,0.1855469,1.3896484,0.2744141,2.0751953,0.2744141c3.5322266,0,6.7646484-2.3574219,7.7226562-5.9316406 l4.9118652-18.3312988C342.7856445,32.5334473,359.5241699,39.7965088,375.5,49.0200195 c15.9692383,9.2198486,30.6158447,20.0856934,43.7832031,32.3505859l-13.3037109,13.3041992 c-3.1245117,3.1240234-3.1245117,8.1894531,0,11.3134766c1.5620117,1.5625,3.609375,2.3432617,5.6567383,2.3432617 s4.0947266-0.78125,5.6567383-2.3432617L430.625,92.6560059c24.7700195,26.4123535,43.2436523,58.2946777,54.0043945,93.7507324 l-18.1992188,4.8764648c-4.2680664,1.1435547-6.8007812,5.5302734-5.6572266,9.7978516 c0.9580078,3.574707,4.1899414,5.9316406,7.7226562,5.9316406c0.6850586,0,1.3818359-0.0888672,2.0751953-0.2744141 l18.203125-4.8774414C497.1984863,237.9489746,497.1549072,274.8011475,488.9215088,310.0657349z" fill="inherit"/><path d="M476.2719727,248.2436523h-17.9055176c-0.5688477-14.7993164-2.7751465-29.7587891-6.7663574-44.6542969 c-3.9733887-14.8291016-9.512085-28.8276367-16.3764648-41.8786621l15.3535156-8.864502 c3.8261719-2.2089844,5.137207-7.1020508,2.9282227-10.9282227s-7.1020508-5.1352539-10.9282227-2.9282227l-15.3510742,8.8630371 c-16.2774658-25.7373047-38.0114746-47.1137695-63.1661377-62.9841309l8.9781494-15.550293 c2.2089844-3.8261719,0.8979492-8.71875-2.9282227-10.9282227c-3.8256836-2.2094727-8.71875-0.8984375-10.9282227,2.9282227 l-8.9775391,15.5490723c-26.3435059-13.8662109-55.7570801-21.9868164-86.2124023-23.2119141v-17.692627c0-4.418457-3.581543-8-8-8 s-8,3.581543-8,8v17.685791c-14.717041,0.5825195-29.5909424,2.7827148-44.4023438,6.7512207 c-14.8061523,3.9672852-28.7839355,9.4953613-41.8178711,16.3449707l-8.9067383-15.4265137 c-2.2094727-3.8271484-7.1020508-5.1357422-10.9282227-2.9282227c-3.8261719,2.2094727-5.137207,7.1020508-2.9282227,10.9282227 l8.90271,15.4196777c-25.7484131,16.2719727-47.1358643,38.0029297-63.0155029,63.1578369l-15.4257812-8.9061279 c-3.8261719-2.2094727-8.71875-0.8984375-10.9282227,2.9282227c-2.2089844,3.8261719-0.8979492,8.7192383,2.9282227,10.9282227 l15.4213867,8.9036865c-13.916748,26.4229736-22.0517578,55.9366455-23.244873,86.4932861H35.7114258c-4.418457,0-8,3.581543-8,8 s3.581543,8,8,8h17.9447021c0.5968018,14.6402588,2.7961426,29.4348755,6.7437744,44.1674805 c3.9813232,14.8582153,9.5351562,28.8809814,16.418335,41.953186l-15.2684326,8.8153687 c-3.8261719,2.2089844-5.137207,7.1020508-2.9282227,10.9282227c1.4819336,2.5664062,4.1708984,4.0014648,6.9355469,4.0014648 c1.3574219,0,2.7329102-0.3461914,3.9926758-1.0732422l15.2819824-8.8231201 c16.2792969,25.7129517,37.9902344,47.086731,63.1328125,62.9436646l-7.9318848,13.7383423 c-0.5253906,0.5092773-0.9897461,1.0996094-1.3725586,1.765625c-2.2011719,3.8310547-0.8798828,8.7211914,2.9506836,10.9223633 l0.2836914,0.1586914c1.2519531,0.715332,2.6157227,1.0556641,3.9619141,1.0556641 c2.7651367,0,5.4545898-1.4360352,6.9355469-4.0014648l9.0290527-15.638916 c26.3310547,13.8539429,55.7299805,21.9608765,86.1706543,23.1846924v18.182251c0,4.418457,3.581543,8,8,8s8-3.581543,8-8 v-18.1644287c14.7216797-0.5834351,29.6054688-2.789856,44.4189453-6.7589111 c14.8218994-3.9714966,28.8139648-9.5067749,41.8598633-16.3664551l8.984375,15.5617676 c1.4790039,2.5615234,4.1743164,3.9892578,6.9438477,3.9892578c1.3540039,0,2.7265625-0.3417969,3.9824219-1.059082 l0.2548828-0.1430664c3.8305664-2.2011719,5.140625-7.0849609,2.9394531-10.9160156 c-0.3740234-0.6508789-0.8261719-1.2294922-1.3374023-1.7304688l-7.9089355-13.6987305 c25.7194824-16.262207,47.0792236-37.9763184,62.9481201-63.1043701l15.4197998,8.90271 c1.2597656,0.7275391,2.6352539,1.0732422,3.9926758,1.0732422c2.7646484,0,5.4536133-1.4350586,6.9355469-4.0014648 c2.2089844-3.8261719,0.8979492-8.7192383-2.9282227-10.9282227l-15.4128418-8.8986816 c13.8537598-26.2922974,22.0084229-55.6375122,23.2652588-86.0368652h17.9224854c4.418457,0,8-3.581543,8-8 S480.6904297,248.2436523,476.2719727,248.2436523z M349.4482422,417.4072876 c-0.0593262,0.0322876-0.1203613,0.0578003-0.1791992,0.0917358c-0.0664062,0.0383301-0.1259766,0.0835571-0.190918,0.1234741 c-13.7612305,7.9293213-28.7562256,14.2214966-44.8081055,18.522522 c-16.1088867,4.3164062-32.2905273,6.3769531-48.2275391,6.3759766 c-66.1882324-0.0031128-127.9853516-35.5683594-161.2661133-92.75c-0.0695801-0.1386719-0.1337891-0.2788696-0.2124023-0.4150391 c-0.0864258-0.1495972-0.18396-0.2884521-0.2783203-0.4302979c-7.8876953-13.7188721-14.145752-28.6641235-18.4306641-44.6556396 c-4.1359863-15.4356689-6.1977539-30.9467163-6.3623047-46.2373657c0.1318359-0.5761108,0.2080078-1.1733398,0.2080078-1.7894897 c0-0.6096802-0.0743408-1.2010498-0.2034912-1.7716675c0.6954346-81.7263794,55.536499-156.458313,138.2327881-178.6165161 c16.1088867-4.3164062,32.2905273-6.3759766,48.2275391-6.3759766c82.3349609,0,157.8876953,55.027832,180.1875,138.2509766 C458.4213867,290.8662109,420.6049805,376.1866455,349.4482422,417.4072876z" fill="inherit"/></g></svg>