<?xml version="1.0" encoding="UTF-8"?><svg xmlns="http://www.w3.org/2000/svg" xmlns:xlink="http://www.w3.org/1999/xlink" height="124.0" preserveAspectRatio="xMidYMid meet" version="1.0" viewBox="-1.3 0.0 140.3 124.0" width="140.3" zoomAndPan="magnify"><g data-name="Layer 2"><g data-name="Layer 2"><g id="change1_1"><path d="M15.78,116.58c3.53,3,8.25,4.58,14,4.58a38,38,0,0,0,4.84-.32c10.6-1.32,19.08-6.7,26.15-13a138,138,0,0,0,12.07,9.47c6.58,4.53,12.74,6.73,18.85,6.73a24.4,24.4,0,0,0,7.73-1.26c9.38-3.17,15-11.33,14.62-21.32a69.16,69.16,0,0,0-2.88-16.81,63.08,63.08,0,0,0,14.71-8.9,40.67,40.67,0,0,0,8.87-9.2c4-6.27,4.24-13.19.59-19.09a11.58,11.58,0,0,0-2.54-3.13c-5.75-5-13.29-6-18.8-6.79-.88-.13-1.73-.24-2.54-.38-4.22-.68-8.59-1.22-13.06-1.59a101,101,0,0,0-8.49-20.34C87.83,11.48,81.49,0,69.81,0A18.8,18.8,0,0,0,59.64,3.12c-8,5-11.43,14.16-14,20.81-.45,1.17-.87,2.27-1.27,3.24-.24.58-.48,1.21-.74,1.86-.31.81-.76,2-1.18,2.86-1.43,0-3-.15-4.7-.3-1.5-.12-3.05-.25-4.64-.32-1,0-2.22-.14-3.52-.26-2.24-.19-4.78-.41-7.41-.41-5.83,0-10.51,1.16-14.3,3.53A16.13,16.13,0,0,0,.29,44.89C-1.3,53.14,4.08,60.52,6.67,64.07A68.39,68.39,0,0,0,16.88,75.24c.68.59,1.34,1.11,2,1.58a134.28,134.28,0,0,0-7.4,20.37C10.53,100.69,8.13,110,15.78,116.58Z" fill="#fff"/></g><g id="change2_1"><path d="M125.19,53.63a7,7,0,0,0-3.44-2,154,154,0,0,0-32.47-4.46c-1.84-9.66-6.64-22-12.07-30.12C75.8,15,74,12.85,71.49,12.26a8,8,0,0,0-6.94,2.18,23.32,23.32,0,0,0-4.4,6.12C57.06,26,53.66,37,50.55,41.37A6.21,6.21,0,0,1,45.21,44c-6.09-.28-18.89-.84-24.79-.94-4.23-.07-9.93,1.82-9,7a7.09,7.09,0,0,0,.79,2.08A56.42,56.42,0,0,0,31.43,72.46a2.4,2.4,0,0,1,.87,3C30,80.59,23.78,94.43,22,103.11a6.93,6.93,0,0,0-.1,3.47c.72,2.32,3.45,3.3,5.86,3.57,6.39.69,12.84-1.41,18.3-4.8s10-8,14.42-12.69a187.52,187.52,0,0,0,16,13.76c4.06,3.11,8.49,6.15,13.57,6.76s10.91-2,12.2-7a15.06,15.06,0,0,0,.08-5.56,87.71,87.71,0,0,0-5.89-22.58,52.28,52.28,0,0,0,26.88-14.9C125.82,60.59,128.2,56.88,125.19,53.63Z" fill="#fbcb5c"/></g><g id="change3_1"><path d="M126.25,52.57c-4.21-3.64-11.11-4-16.39-4.86a165.15,165.15,0,0,0-20.58-2l1.45,1.1a92.3,92.3,0,0,0-9.57-26.08c-3.33-6-8.57-13.35-16.16-8.53-6.21,3.94-8.71,13-11.36,19.43-1.64,4-3.4,10.38-8.43,10.81-4,.35-8.43-.37-12.47-.54-5.81-.23-14.24-2-19.51,1.34-6.47,4.07-1.77,11.06,1.52,15.57a58,58,0,0,0,8.71,9.54c1.47,1.28,3.17,2.34,4.61,3.64,2.46,2.23,2.65,3.33,1.41,6.12-3.2,7.2-6.39,14.58-8.36,22.22-.85,3.27-1.68,6.84,1.19,9.31s7.62,2.35,11.08,1.92c11.64-1.45,20.49-9.64,28.16-17.85H59.43a158.94,158.94,0,0,0,19.1,16c5.18,3.57,11.39,6.36,17.7,4.23,5.26-1.77,8-6,7.82-11.48-.3-8.42-3-17.1-6.13-24.84l-1,1.84a55,55,0,0,0,22.7-10.84c4.58-3.72,11.34-9.59,6.91-15.78-1.12-1.56-3.72-.06-2.59,1.51,4.21,5.89-7.47,13.22-11.49,15.7a53,53,0,0,1-16.33,6.52,1.51,1.51,0,0,0-1,1.85c3.38,8.47,12.86,32.23-2.57,33.22-6.77.44-12.68-4.53-17.66-8.49-4.6-3.65-9-7.54-13.25-11.59a1.51,1.51,0,0,0-2.12,0c-6.36,6.8-13.34,13.66-22.56,16.22-4.79,1.33-13.89,2.81-13.29-4.89.25-3.21,1.89-6.76,3-9.76,2.06-5.69,5.25-11.16,7-16.91,1.69-5.42-5.93-8.06-9.19-11.07a55.68,55.68,0,0,1-8-9.16,28.38,28.38,0,0,1-2.89-4.67c-1.43-3.39.75-5.79,4-6.57,5.7-1.37,13,0,18.74.27,4.57.19,10.81,1.73,14.55-1.7s5.25-9.75,7.1-14.24C59.5,25.2,61.13,21,63.77,17.64c3.15-4,7.4-5.5,11.31-.86a32.93,32.93,0,0,1,3.49,5.47,89.69,89.69,0,0,1,9.27,25.37,1.51,1.51,0,0,0,1.44,1.1,159.62,159.62,0,0,1,17.87,1.59c4.9.73,13.12,1,17,4.39C125.59,56,127.72,53.84,126.25,52.57Z"/></g><g id="change3_2"><path d="M81.69,58.4a2.11,2.11,0,0,0-1.24,1.77,2.28,2.28,0,0,0,1.49,2,2.48,2.48,0,0,0,2.61-.33,2.22,2.22,0,0,0,.4-2.77C84.13,57.72,82.34,58.11,81.69,58.4Z"/></g><g id="change3_3"><path d="M49.09,56.19A2.11,2.11,0,0,0,47.85,58a2.31,2.31,0,0,0,1.49,2A2.5,2.5,0,0,0,52,59.68a2.22,2.22,0,0,0,.39-2.77C51.53,55.51,49.74,55.9,49.09,56.19Z"/></g><g id="change3_4"><path d="M59.53,57.33c-1,2.64-1.53,5.3-.21,8a7.87,7.87,0,0,0,6.26,4.41c6.81.61,9-5.73,9.2-11.29.08-1.93-2.92-1.93-3,0-.15,3.7-1,8.63-5.8,8.3a4.91,4.91,0,0,1-4.2-3.26c-.64-1.81,0-3.61.65-5.32s-2.25-2.6-2.9-.79Z"/></g><g id="change4_1"><path d="M83.68,66.61a16.49,16.49,0,0,0-3.78.21,5.56,5.56,0,0,0-3.25,1.82A1.88,1.88,0,0,0,76.13,70a2.06,2.06,0,0,0,1,1.37c2.25,1.56,5.23,1.42,7.94,1.1a7.44,7.44,0,0,0,2.39-.55A2.69,2.69,0,0,0,89,70.12a2.75,2.75,0,0,0-1.69-2.78,8.13,8.13,0,0,0-3.44-.49" fill="#ee6a6a"/></g><g id="change5_1"><path d="M83.68,65.11c-3,0-8.65.38-9,4.48-.29,3.44,4.47,4.49,7.06,4.57,2.87.09,7.89-.07,8.7-3.64.9-4-3.67-5.15-6.57-5.17a1.5,1.5,0,0,0,0,3c.54,0,1.79-.15,2.22.15,2.89,2.07-.78,2.43-1.44,2.51a16.71,16.71,0,0,1-3.74.11c-1.21-.13-4.25-.75-2.38-2.18,1.35-1,3.54-.86,5.14-.83,1.93,0,1.93-3,0-3Z" fill="#ef6a6a"/></g><g id="change4_2"><path d="M49,64.39a9.46,9.46,0,0,0-4.82-.4,6.06,6.06,0,0,0-2.27.55,2.25,2.25,0,0,0-1.27,1.84c0,1.19,1.2,2,2.31,2.43a14.28,14.28,0,0,0,8.18.65,4.32,4.32,0,0,0,2.08-.92,1.88,1.88,0,0,0,.55-2.08,2.57,2.57,0,0,0-1.39-1.11,13.64,13.64,0,0,0-3.6-1" fill="#ee6a6a"/></g><g id="change5_2"><path d="M49.35,62.94c-2.75-1-8.3-1.21-9.87,1.94-1.75,3.5,2.55,5.46,5.23,6,2.93.62,8.52,1,10.21-2.23,2-3.81-3.13-5.34-5.8-5.81-1.89-.34-2.7,2.55-.8,2.89,1,.17,5,.7,3.11,2.06-1.11.81-4.18.51-5.47.29s-4.59-1.29-2.4-2.52c1.19-.66,3.88-.15,5,.25,1.82.64,2.61-2.25.8-2.9Z" fill="#ef6a6a"/></g></g></g></svg>