<?xml version="1.0" encoding="UTF-8" standalone="no"?><svg xmlns="http://www.w3.org/2000/svg" xmlns:xlink="http://www.w3.org/1999/xlink" fill="#000000" height="330" preserveAspectRatio="xMidYMid meet" version="1" viewBox="0.0 0.0 330.0 330.0" width="330" zoomAndPan="magnify"><g fill="#198592" id="change1_1"><path d="M 63.675781 34.734375 L 34.734375 63.675781 C 32.835938 66.109375 31.011719 68.601562 29.25 71.144531 L 71.144531 29.25 C 68.601562 31.011719 66.109375 32.835938 63.675781 34.734375" fill="inherit"/><path d="M 113.195312 8.273438 L 8.273438 113.195312 C 7.949219 114.171875 7.628906 115.144531 7.324219 116.128906 L 116.128906 7.324219 C 115.144531 7.628906 114.171875 7.949219 113.195312 8.273438" fill="inherit"/><path d="M 143.113281 1.414062 L 1.414062 143.113281 C 1.3125 143.867188 1.222656 144.625 1.132812 145.382812 L 145.382812 1.132812 C 144.625 1.222656 143.867188 1.3125 143.113281 1.414062" fill="inherit"/><path d="M 167.589844 0 L 0 167.589844 C 0.0117188 168.238281 0.015625 168.894531 0.03125 169.542969 L 169.542969 0.03125 C 168.894531 0.015625 168.238281 0.0117188 167.589844 0" fill="inherit"/><path d="M 188.945312 1.703125 L 1.703125 188.945312 C 1.785156 189.523438 1.867188 190.101562 1.957031 190.675781 L 190.675781 1.960938 C 190.101562 1.867188 189.523438 1.785156 188.945312 1.703125" fill="inherit"/><path d="M 208.054688 5.652344 L 5.652344 208.054688 C 5.792969 208.574219 5.929688 209.097656 6.074219 209.617188 L 209.617188 6.074219 C 209.097656 5.929688 208.574219 5.792969 208.054688 5.652344" fill="inherit"/><path d="M 225.398438 11.371094 L 11.371094 225.398438 C 11.554688 225.871094 11.753906 226.339844 11.945312 226.808594 L 226.808594 11.945312 C 226.339844 11.753906 225.871094 11.558594 225.398438 11.371094" fill="inherit"/><path d="M 241.226562 18.601562 L 18.601562 241.226562 C 18.828125 241.660156 19.054688 242.097656 19.285156 242.527344 L 242.527344 19.285156 C 242.097656 19.054688 241.660156 18.828125 241.226562 18.601562" fill="inherit"/><path d="M 255.742188 27.144531 L 27.144531 255.742188 C 27.410156 256.140625 27.667969 256.542969 27.933594 256.9375 L 256.9375 27.933594 C 256.542969 27.667969 256.140625 27.410156 255.742188 27.144531" fill="inherit"/><path d="M 269.046875 36.902344 L 36.902344 269.042969 C 37.199219 269.410156 37.492188 269.777344 37.792969 270.140625 L 270.140625 37.792969 C 269.777344 37.492188 269.410156 37.199219 269.046875 36.902344" fill="inherit"/><path d="M 281.191406 47.8125 L 47.8125 281.191406 C 48.144531 281.523438 48.472656 281.855469 48.804688 282.1875 L 282.1875 48.808594 C 281.855469 48.472656 281.523438 48.144531 281.191406 47.8125" fill="inherit"/><path d="M 292.207031 59.859375 L 59.859375 292.207031 C 60.222656 292.507812 60.589844 292.800781 60.957031 293.097656 L 293.097656 60.953125 C 292.800781 60.589844 292.507812 60.222656 292.207031 59.859375" fill="inherit"/><path d="M 302.066406 73.0625 L 73.058594 302.066406 C 73.457031 302.332031 73.859375 302.589844 74.257812 302.855469 L 302.855469 74.257812 C 302.59375 73.859375 302.332031 73.457031 302.066406 73.0625" fill="inherit"/><path d="M 310.714844 87.472656 L 87.472656 310.714844 C 87.90625 310.945312 88.339844 311.171875 88.773438 311.398438 L 311.398438 88.773438 C 311.171875 88.339844 310.945312 87.90625 310.714844 87.472656" fill="inherit"/><path d="M 318.054688 103.191406 L 103.191406 318.054688 C 103.660156 318.246094 104.128906 318.441406 104.601562 318.628906 L 318.628906 104.601562 C 318.441406 104.128906 318.246094 103.660156 318.054688 103.191406" fill="inherit"/><path d="M 323.925781 120.382812 L 120.382812 323.925781 C 120.902344 324.070312 121.425781 324.207031 121.945312 324.347656 L 324.347656 121.945312 C 324.207031 121.425781 324.070312 120.902344 323.925781 120.382812" fill="inherit"/><path d="M 328.039062 139.324219 L 139.324219 328.042969 C 139.898438 328.132812 140.476562 328.214844 141.054688 328.296875 L 328.296875 141.054688 C 328.214844 140.476562 328.132812 139.898438 328.039062 139.324219" fill="inherit"/><path d="M 329.96875 160.457031 L 160.457031 329.96875 C 161.105469 329.984375 161.761719 329.988281 162.410156 330 L 330 162.410156 C 329.988281 161.761719 329.984375 161.105469 329.96875 160.457031" fill="inherit"/><path d="M 328.867188 184.617188 L 184.617188 328.867188 C 185.375 328.777344 186.132812 328.6875 186.886719 328.585938 L 328.585938 186.886719 C 328.6875 186.132812 328.777344 185.375 328.867188 184.617188" fill="inherit"/><path d="M 322.675781 213.871094 L 213.871094 322.675781 C 214.855469 322.371094 215.828125 322.050781 216.804688 321.726562 L 321.726562 216.804688 C 322.050781 215.828125 322.371094 214.855469 322.675781 213.871094" fill="inherit"/><path d="M 295.265625 266.324219 C 297.160156 263.890625 298.988281 261.398438 300.75 258.855469 L 258.855469 300.75 C 261.398438 298.988281 263.890625 297.164062 266.324219 295.265625 L 295.265625 266.324219" fill="inherit"/></g></svg>